<svg xmlns="http://www.w3.org/2000/svg" width="1000" height="400" viewBox="0 0 1000 400">
  <rect width="1000" height="400" fill="#F7F6F1" />

  <g transform="translate(140, 248) scale(0.05, -0.05)" fill="#000000">
    <path d="M2360 3075 l0 -385 95 0 c52 0 95 -4 95 -9 0 -5 18 -27 40 -49 42 -42 111 -72 164 -72 46 0 125 42 171 89 l39 41 94 0 94 0 -4 108 -3 109 -47 52 c-54 60 -72 106 -65 167 6 53 46 118 84 136 27 13 28 16 31 106 l3 92 -396 0 -395 0 0 -385z"/>
    <path d="M3190 3370 c0 -70 -3 -90 -14 -90 -27 0 -77 -64 -93 -120 -13 -45 -14 -63 -4 -98 12 -46 54 -114 90 -146 19 -17 21 -30 21 -123 l0 -103 100 0 99 0 62 55 c74 66 120 82 189 65 52 -13 117 -60 131 -96 8 -23 13 -24 109 -24 l100 0 0 385 0 385 -395 0 -395 0 0 -90z"/>
    <path d="M2360 2260 l0 -390 395 0 395 0 0 78 0 77 43 41 c51 48 79 102 85 165 7 69 -14 117 -74 176 l-54 51 0 96 0 96 -98 0 -98 0 -49 -51 c-28 -28 -62 -57 -77 -65 -32 -17 -115 -18 -155 -3 -35 13 -80 55 -99 92 -14 27 -16 27 -114 27 l-100 0 0 -390z"/>
    <path d="M3635 2621 c-27 -16 -63 -43 -79 -60 -29 -31 -31 -31 -128 -31 l-98 0 0 -99 0 -99 50 -48 c59 -57 80 -97 80 -156 0 -59 -41 -139 -91 -179 l-39 -31 0 -84 0 -84 390 0 390 0 0 390 0 390 -87 0 -86 0 -35 40 c-72 85 -174 104 -267 51z"/>
  </g>

  <g transform="translate(195, 235) scale(0.1, -0.1)" fill="#000000">
    <path d="M2810 1561 c-14 -4 -39 -15 -57 -24 -18 -10 -42 -16 -55 -14 -19 2 -23 -3 -23 -28 -1 -17 -4 -35 -8 -42 -4 -6 -3 -14 3 -18 5 -3 10 -32 10 -64 0 -31 7 -129 15 -217 19 -209 24 -257 24 -270 2 -24 91 -27 91 -3 0 5 20 35 45 68 25 32 45 62 43 67 -4 11 38 80 68 113 13 13 30 45 40 70 9 25 23 55 31 66 20 30 17 141 -7 190 -33 68 -155 127 -220 106z m138 -75 c21 -46 24 -110 8 -183 -15 -75 -78 -211 -124 -273 l-27 -35 -6 40 c-4 22 -12 122 -19 222 -15 205 -15 202 55 234 58 27 99 25 113 -5z m-104 -542 c-16 -20 -30 -31 -32 -24 -4 12 48 73 56 66 2 -3 -9 -21 -24 -42z"/>
    <path d="M3535 1497 c-36 -37 -61 -76 -83 -129 -50 -119 -42 -157 36 -178 46 -12 58 -10 139 23 29 11 56 18 60 14 13 -14 6 -66 -16 -108 -42 -82 -184 -209 -234 -209 -26 0 -16 -23 14 -31 54 -15 90 -9 142 24 98 63 187 184 187 254 0 48 -9 62 -53 85 -80 40 -109 41 -201 3 -17 -8 -19 -5 -12 25 10 54 66 166 93 190 14 12 39 28 56 35 l31 13 -35 21 c-18 11 -43 21 -53 21 -11 0 -43 -24 -71 -53z"/>
    <path d="M3148 1532 c-14 -2 -32 -10 -40 -19 -30 -36 -18 -498 15 -614 l13 -44 67 -3 c55 -2 75 1 102 18 37 23 85 75 85 92 0 19 -69 1 -92 -24 -16 -17 -18 -18 -8 -3 8 11 1 7 -18 -9 -17 -16 -34 -27 -37 -24 -11 10 -26 135 -23 184 l3 48 63 30 c34 17 62 33 62 37 0 12 -91 19 -112 8 -11 -6 -22 -8 -25 -6 -2 3 -7 57 -10 120 -5 91 -9 113 -18 103 -7 -6 -16 -39 -20 -71 l-8 -60 -9 40 c-5 22 -7 69 -6 105 l3 65 33 3 c29 3 32 1 29 -20 -2 -13 -2 -17 0 -10 3 8 27 12 74 12 44 0 68 4 64 10 -3 6 -24 10 -46 10 -21 0 -39 4 -39 9 0 10 -61 18 -102 13z m-31 -184 c-3 -7 -5 -2 -5 12 0 14 2 19 5 13 2 -7 2 -19 0 -25z m50 -470 c-3 -8 -6 -5 -6 6 -1 11 2 17 5 13 3 -3 4 -12 1 -19z"/>
    <path d="M4617 1533 c-4 -3 -7 -22 -7 -41 0 -26 4 -33 15 -29 8 4 17 2 20 -3 7 -11 17 -375 10 -368 -3 3 -9 25 -14 49 l-9 44 -2 -50 -1 -50 -19 40 c-10 22 -39 104 -65 183 -38 115 -50 142 -65 142 -10 0 -22 -5 -26 -12 -5 -7 -10 -4 -16 11 -13 36 -33 19 -35 -30 -2 -39 -1 -41 8 -19 10 24 11 24 28 -21 20 -50 18 -165 -1 -137 -7 9 -8 6 -5 -10 7 -28 -1 -54 -14 -46 -5 3 -9 -5 -9 -18 0 -13 -5 -30 -10 -38 -8 -12 -10 -10 -10 10 0 20 -2 22 -10 10 -12 -18 -3 -200 11 -237 7 -19 15 -24 37 -21 l27 3 3 185 c3 166 5 182 17 155 12 -26 13 -27 14 -8 1 12 -3 33 -9 48 -7 18 -7 24 1 20 7 -5 9 6 5 32 -3 21 -3 29 0 19 5 -15 8 -16 16 -5 6 10 7 7 3 -10 -4 -14 -3 -21 2 -18 6 4 15 -17 22 -45 11 -51 9 -81 -3 -33 -10 41 -25 29 -19 -17 4 -27 3 -39 -5 -35 -15 10 -4 -25 39 -127 49 -114 97 -186 125 -186 30 0 84 20 84 32 0 5 -9 66 -19 136 -29 189 -44 357 -39 427 l6 63 -30 6 c-38 8 -43 8 -51 -1z m-190 -420 c-3 -10 -5 -4 -5 12 0 17 2 24 5 18 2 -7 2 -21 0 -30z"/>
    <path d="M2115 1518 c-2 -7 -9 -44 -15 -83 -12 -74 -27 -555 -17 -555 3 0 17 4 31 10 19 7 26 18 29 47 l4 38 1 -37 c1 -21 6 -38 11 -38 13 0 21 80 22 224 1 155 12 213 22 121 3 -33 14 -85 24 -115 l18 -54 50 2 c56 4 69 15 87 77 l12 40 7 -80 c4 -44 5 -117 2 -162 -7 -92 -7 -91 58 -71 l39 11 -1 271 c-1 149 -4 285 -8 301 -5 23 -12 31 -32 33 -24 3 -27 -1 -33 -37 -3 -21 -10 -41 -15 -43 -6 -1 -12 -16 -15 -33 -14 -75 -18 -88 -26 -74 -6 9 -11 5 -16 -16 -6 -25 -8 -27 -14 -10 -6 18 -8 17 -22 -9 -18 -34 -15 -38 -44 79 -9 39 -24 85 -33 104 -17 37 -41 53 -41 27 0 -26 -15 -18 -27 14 -12 31 -49 43 -58 18z m114 -121 c-1 -45 -4 -72 -6 -59 -2 12 -9 20 -14 17 -10 -7 -13 94 -3 119 14 35 24 0 23 -77z m-71 14 c2 -27 1 -63 -3 -78 -7 -26 -8 -26 -15 -8 -7 17 -9 15 -9 -10 -1 -22 -4 -26 -10 -16 -7 11 -11 8 -14 -15 -3 -16 -3 0 -2 36 4 84 24 165 38 151 5 -5 12 -32 15 -60z m-29 -408 c-1 -60 -3 -70 -9 -45 -7 30 -2 122 6 122 2 0 4 -35 3 -77z"/>
    <path d="M1872 1497 c-13 -6 -32 -28 -43 -48 -12 -24 -27 -39 -41 -41 -29 -4 -44 -47 -59 -171 -20 -160 0 -314 45 -356 18 -17 28 -18 75 -10 30 4 62 16 70 26 15 16 15 16 -3 2 -13 -9 -17 -10 -12 -1 10 17 -3 35 -18 23 -6 -5 2 19 19 54 29 64 46 83 24 29 -6 -16 -13 -42 -14 -58 -2 -27 -1 -28 12 -10 7 10 11 24 9 31 -3 7 1 31 9 54 8 23 15 54 15 69 0 15 7 41 15 56 8 16 15 36 15 45 0 23 30 33 31 11 3 -43 -4 -89 -18 -124 -8 -20 -13 -43 -11 -49 9 -28 40 104 45 196 6 113 -8 211 -35 236 -28 27 -103 48 -130 36z m68 -165 c0 -158 -37 -342 -79 -394 l-20 -23 -15 35 c-8 19 -16 28 -17 20 -1 -8 -5 5 -9 30 -9 52 -6 60 21 60 10 0 19 5 19 10 0 6 -4 10 -9 10 -29 0 -11 128 24 170 7 8 18 33 25 55 40 123 60 132 60 27z m-153 -364 c-3 -8 -6 -5 -6 6 -1 11 2 17 5 13 3 -3 4 -12 1 -19z"/>
    <path d="M3821 1428 c1 -73 2 -79 11 -50 20 61 35 38 41 -67 7 -101 1 -165 -14 -155 -5 2 -12 -8 -16 -23 -7 -27 -8 -27 -14 12 -4 22 -7 -25 -7 -105 1 -80 3 -151 5 -157 5 -14 50 -17 77 -7 14 5 16 42 16 310 l0 304 -26 10 c-14 6 -36 10 -50 10 -24 0 -24 -1 -23 -82z"/>
    <path d="M4015 1486 c-35 -35 -48 -98 -41 -191 4 -44 8 -114 10 -155 5 -82 37 -199 68 -242 21 -31 41 -34 100 -16 32 9 44 20 63 57 31 62 45 136 45 236 l0 83 40 7 c22 4 40 10 40 14 0 8 -65 6 -167 -5 -57 -6 -73 -24 -22 -24 l31 0 -6 -87 c-8 -96 -23 -189 -36 -213 -11 -20 -26 18 -50 130 -38 174 -35 315 7 379 l16 25 36 -42 c34 -39 62 -49 114 -43 18 2 -58 84 -90 97 -18 8 -55 14 -83 14 -40 0 -56 -5 -75 -24z"/>
  </g>
</svg>